<svg xmlns="http://www.w3.org/2000/svg" xmlns:xlink="http://www.w3.org/1999/xlink" version="1.1" x="0px" y="0px" width="100px" height="100px" viewBox="0 0 100 100" enable-background="new 0 0 100 100" xml:space="preserve">
<g id="Captions">
	<rect x="-192" width="185" height="99"/>
	<rect y="-36" width="100" height="30"/>
	<text transform="matrix(1 0 0 1 66 -19.5)" fill="#000000" font-family="'Helvetica'" font-size="2.4">http://thenounproject.com</text>
	<text transform="matrix(1 0 0 1 7.166 -24.5)"><tspan x="0" y="0" fill="#000000" font-family="'Helvetica-Bold'" font-size="6.1578">The Noun Project</tspan><tspan x="1.12" y="4.8" fill="#000000" font-family="'Helvetica-Bold'" font-size="4">Icon Template</tspan></text>
	<text transform="matrix(1 0 0 1 -178.5 10.5)" fill="#000000" font-family="'Helvetica-Bold'" font-size="6.1578">Reminders</text>
	<line fill="#000000" stroke="#FFFFFF" stroke-miterlimit="10" x1="8" y1="-14.5" x2="18" y2="-14.5"/>
	<line fill="#000000" stroke="#FFFFFF" stroke-miterlimit="10" x1="-179" y1="16.5" x2="-162" y2="16.5"/>
	<g>
		<g>
			<g>
				<rect x="-170.802" y="31.318" fill="#000000" width="8.721" height="8.642"/>
				<path fill="#000000" d="M-164.455,42.312h4.747v-4.703h-4.747V42.312z M-159.266,42.749h-5.63V37.17h5.63V42.749      L-159.266,42.749z M-166.221,44.062h8.279v-8.203h-8.279V44.062L-166.221,44.062z M-157.5,44.5h-9.163v-9.079h9.163V44.5      L-157.5,44.5z"/>
				<polygon fill="#000000" points="-166.149,44.133 -166.292,43.991 -158.013,35.787 -157.871,35.929     "/>
			</g>
		</g>
	</g>
	<rect x="-179" y="58" fill="none" width="35" height="32.5"/>
	<text transform="matrix(1 0 0 1 -179 60.1299)"><tspan x="0" y="0" fill="#000000" font-family="'Helvetica-Bold'" font-size="3">Strokes</tspan><tspan x="0" y="5" fill="#000000" font-family="'Helvetica'" font-size="2.4">Try to keep strokes at 4px</tspan><tspan x="0" y="10" fill="#000000" font-family="'Helvetica'" font-size="2.4">Minimum stroke weight is 2px</tspan><tspan x="0" y="14.5" fill="#000000" font-family="'Helvetica'" font-size="2.4">For thicker strokes use even </tspan><tspan x="0" y="17.5" fill="#000000" font-family="'Helvetica'" font-size="2.4">numbers: 6px, 8px etc.</tspan><tspan x="0" y="22" fill="#000000" font-family="'Helvetica-Bold'" font-size="2.4">Remember to expand strokes </tspan><tspan x="0" y="25" fill="#000000" font-family="'Helvetica-Bold'" font-size="2.4">before saving as an SVG </tspan></text>
	<rect x="-136.5" y="58" fill="none" width="35" height="32.5"/>
	<text transform="matrix(1 0 0 1 -136.5 60.1299)"><tspan x="0" y="0" fill="#000000" font-family="'Helvetica-Bold'" font-size="3">Size</tspan><tspan x="0" y="5" fill="#000000" font-family="'Helvetica'" font-size="2.4">Cannot be wider or taller than </tspan><tspan x="0" y="8.5" fill="#000000" font-family="'Helvetica'" font-size="2.4">100px (artboard size)</tspan><tspan x="0" y="13.5" fill="#000000" font-family="'Helvetica'" font-size="2.4">Scale your icon to fill as much of </tspan><tspan x="0" y="16.5" fill="#000000" font-family="'Helvetica'" font-size="2.4">the artboard as possible</tspan></text>
	<rect x="-94" y="58" fill="none" width="35" height="32.5"/>
	<text transform="matrix(1 0 0 1 -94 60.1299)"><tspan x="0" y="0" fill="#000000" font-family="'Helvetica-Bold'" font-size="3">Ungroup</tspan><tspan x="0" y="5" fill="#000000" font-family="'Helvetica'" font-size="2.4">If your design has more than one </tspan><tspan x="0" y="8" fill="#000000" font-family="'Helvetica'" font-size="2.4">shape, make sure to ungroup</tspan></text>
	<rect x="-50" y="58" fill="none" width="35" height="32.5"/>
	<text transform="matrix(1 0 0 1 -50 60.1299)"><tspan x="0" y="0" fill="#000000" font-family="'Helvetica-Bold'" font-size="3">Save as</tspan><tspan x="0" y="5" fill="#000000" font-family="'Helvetica'" font-size="2.4">Save as .SVG and make sure &#8220;Use </tspan><tspan x="0" y="8" fill="#000000" font-family="'Helvetica'" font-size="2.4">Artboards&#8221; is checked</tspan></text>
	<text transform="matrix(1.0074 0 0 1 -125.542 30.5933)" fill="#000000" font-family="'Helvetica'" font-size="2.5731">100px</text>
	<text transform="matrix(1.0074 0 0 1 -41 39)" fill="#000000" font-family="'Helvetica-Bold'" font-size="5.1462">.SVG</text>
	<rect x="-126.514" y="34.815" fill="#000000" width="10.261" height="10.185"/>
	<rect x="-126.477" y="31.766" fill="#000000" width="0.522" height="2.337"/>
	<rect x="-116.813" y="31.766" fill="#000000" width="0.523" height="2.337"/>
	<rect x="-127" y="32.337" fill="#000000" width="11.233" height="0.572"/>
	<g>
		<rect x="-83.805" y="33.844" fill="#000000" width="10.305" height="10.156"/>
		<rect x="-76.809" y="28.707" fill="#000000" width="3.308" height="3.261"/>
	</g>
	<rect x="-178.5" y="22.5" fill="#000000" stroke="#FFFFFF" stroke-miterlimit="10" width="30" height="30"/>
	<rect x="-136.5" y="22.5" fill="#000000" stroke="#FFFFFF" stroke-miterlimit="10" width="30" height="30"/>
	<rect x="-93.5" y="22.5" fill="#000000" stroke="#FFFFFF" stroke-miterlimit="10" width="30" height="30"/>
	<rect x="-49.5" y="22.5" fill="#000000" stroke="#FFFFFF" stroke-miterlimit="10" width="30" height="30"/>
</g>
<g id="Your_Icon">
	<path d="M75.508,50.068l7.549-1.147c3.107-0.292,2.428-3.886,2.428-3.886L83.445,32.02L79.496,7.416   c-0.811-4.467-4.404-3.27-4.404-3.27L56.248,7.352l-43.946,7.43c-3.74,0.631-2.963,3.157-2.963,3.157l5.246,26.03l2.719,13.937   c0,0,0.388,1.759,3.205,1.408l7.014-1.277l0.465-11.349l42.247-7.284L75.508,50.068z M18.17,46.069l-4.811-27.097l62.245-11.05   l4.809,27.096L18.17,46.069z"/>
	<path d="M83.445,81.456c0,0-1.111,0.077-2.609-0.091c0.248-1.258,0.389-2.646,0.377-4.184c0,0-1.848-10.876-7.094-7.67   c0,0-0.811,2.428-3.865,5.519c-1.117-1.129-2.242-2.419-3.127-3.772c0,0-2.533-2.621,2.715-3.787c0,0,7.871,2.041,9.912-4.272   c0,0,1.459-12.045-9.322-7.188c0,0-7.674,7.188-9.813-0.292l-0.486-2.93l-1.629,0.272c0.092,1.011,0.539,4.772,2.213,6.4   c0,0,2.719,4.027,9.809-1.509c0,0,4.955-3.302,7.094,0.971c0,0,1.746,5.73-2.625,6.896c0,0-8.545-1.067-10.002,3.012   c0,0-1.051,3.452,3.564,7.773c-0.908,0.771-1.955,1.564-3.158,2.355c-0.135,0.088-0.271,0.176-0.406,0.263   c-7.48,4.759,1.162,11.17,4.855,9.129c0,0,3.713-4.267,6.24-1.276c-1.84,2.093-4.916,4.657-8.863,4.482   c0,0-10.199-2.622-10.684-18.438c0,0-0.875-4.969,4.371-7.786c0,0,2.523-3.786-2.623-8.06l-4.422-3.437l-1.164,0.195   c3.141,1.782,9.699,6.131,7.334,10.233c0,0-7.379,4.662-4.084,18.162c0,0,6.318,16.513,17.488,9.519c0,0,1.922-0.881,3.855-3.119   c1.68,1.931,5.338,3.999,10.52-4.846C87.816,83.981,89.369,82.233,83.445,81.456z M74.803,71.744c0,0,1.646-2.3,3.494,1.375   c0,0,1.717,3.954,0.992,7.998c-1.52-0.326-3.166-0.941-4.389-2.088c0,0-1.625-1.155-3.521-2.915   C72.744,74.776,74.047,73.256,74.803,71.744z M77.158,85.742c-0.107-0.158-0.211-0.321-0.32-0.497c0,0-2.533-3.012-6.996,0.388   c0,0-3.104,4.371-5.336-0.679c0,0-1.748-2.721,1.648-4.566c0,0,1.66-1.115,3.58-2.769c1.748,1.401,4.107,2.87,7.299,4.323   c0,0,0.764,0.266,1.893,0.591c-0.221,0.661-0.521,1.312-0.92,1.935C78.006,84.468,77.711,84.987,77.158,85.742z M84.514,85.925   c0,0-2.748,4.4-6.057,1.374c0.779-1.18,1.49-2.62,1.996-4.349c1.275,0.321,2.738,0.623,4.061,0.74   C84.514,83.69,87.877,83.056,84.514,85.925z"/>
	<path d="M23.442,27.616l1.985,11.716l46.985-7.957L70.428,19.66L23.442,27.616z M32.309,36.197c-2.172,0-3.933-1.674-3.933-3.739   c0-2.065,1.761-3.739,3.933-3.739c2.173,0,3.934,1.674,3.934,3.739C36.243,34.523,34.482,36.197,32.309,36.197z M39.516,32.35   l-0.74-3.931l15.673-2.951l0.74,3.931L39.516,32.35z M62.078,31.146c-2.252,0-4.08-1.761-4.08-3.934s1.828-3.933,4.08-3.933   s4.076,1.76,4.076,3.933S64.33,31.146,62.078,31.146z"/>
	<polygon points="69.725,40.048 28.472,46.833 28.01,57.598 74.941,50.112  "/>
</g>
</svg>